# 3ds Max Wavefront OBJ Exporter v0.97b - (c)2007 guruware
# File Created: 20.03.2017 12:18:43

#
# object Table
#

v  -21.1180 0.0000 44.7701
v  -21.1180 0.0000 -44.7701
v  21.1180 0.0000 -44.7701
v  21.1180 0.0000 44.7701
v  -20.0405 1.5466 42.9439
v  20.0405 1.5466 42.9439
v  20.0405 1.5466 -42.9439
v  -20.0405 1.5466 -42.9439
v  25.0000 22.0000 53.0000
v  -25.0000 22.0000 53.0000
v  25.0000 22.0000 -53.0000
v  -25.0000 22.0000 -53.0000
v  24.5000 22.0000 52.5000
v  -24.5000 22.0000 52.5000
v  24.5000 22.0000 -52.5000
v  -24.5000 22.0000 -52.5000
# 16 vertices

vn 0.0000 -1.0000 -0.0000
vn 0.0000 1.0000 -0.0000
vn 0.0000 -0.3504 0.9366
vn 0.9848 -0.1738 -0.0000
vn 0.0000 -0.3504 -0.9366
vn -0.9848 -0.1738 -0.0000
vn 0.0000 0.4233 -0.9060
vn -0.9770 0.2130 -0.0000
vn 0.0000 0.4233 0.9060
vn 0.9770 0.2130 -0.0000
# 10 vertex normals

vt -21.1180 -44.7701 0.0000
vt -21.1180 44.7701 0.0000
vt 21.1180 44.7701 0.0000
vt 21.1180 -44.7701 0.0000
vt -20.0405 -42.9439 1.5466
vt 20.0405 -42.9439 1.5466
vt 20.0405 42.9439 1.5466
vt -20.0405 42.9439 1.5466
vt 25.0000 -53.0000 22.0000
vt -25.0000 -53.0000 22.0000
vt 25.0000 53.0000 22.0000
vt -25.0000 53.0000 22.0000
vt 24.5000 -52.5000 22.0000
vt -24.5000 -52.5000 22.0000
vt 24.5000 52.5000 22.0000
vt -24.5000 52.5000 22.0000
# 16 texture coords

g Table
f 1/1/1 2/2/1 3/3/1 
f 3/3/1 4/4/1 1/1/1 
f 5/5/2 6/6/2 7/7/2 
f 7/7/2 8/8/2 5/5/2 
f 1/1/3 4/4/3 9/9/3 
f 9/9/3 10/10/3 1/1/3 
f 4/4/4 3/3/4 11/11/4 
f 11/11/4 9/9/4 4/4/4 
f 3/3/5 2/2/5 12/12/5 
f 12/12/5 11/11/5 3/3/5 
f 2/2/6 1/1/6 10/10/6 
f 10/10/6 12/12/6 2/2/6 
f 10/10/2 9/9/2 13/13/2 
f 13/13/2 14/14/2 10/10/2 
f 9/9/2 11/11/2 15/15/2 
f 15/15/2 13/13/2 9/9/2 
f 11/11/2 12/12/2 16/16/2 
f 16/16/2 15/15/2 11/11/2 
f 12/12/2 10/10/2 14/14/2 
f 14/14/2 16/16/2 12/12/2 
f 14/14/7 13/13/7 6/6/7 
f 6/6/7 5/5/7 14/14/7 
f 13/13/8 15/15/8 7/7/8 
f 7/7/8 6/6/8 13/13/8 
f 15/15/9 16/16/9 8/8/9 
f 8/8/9 7/7/9 15/15/9 
f 16/16/10 14/14/10 5/5/10 
f 5/5/10 8/8/10 16/16/10 
# 28 faces

