# 3ds Max Wavefront OBJ Exporter v0.97b - (c)2007 guruware
# File Created: 26.02.2017 16:39:56

#
# object Box002
#

v  -25.0000 24.1250 -0.2500
v  -17.1737 22.4436 -0.2500
v  -17.1737 22.4436 0.2500
v  -25.0000 24.1250 0.2500
v  -17.1737 32.4436 0.2500
v  -17.1737 32.4436 -0.2500
v  -25.0000 34.1250 -0.2500
v  -25.0000 34.1250 0.2500
v  25.5000 24.1250 0.2500
v  25.5000 24.1250 -0.2500
v  25.5000 34.1250 -0.2500
v  25.5000 34.1250 0.2500
v  17.1536 22.4436 -0.2500
v  17.1536 32.4436 -0.2500
v  25.0000 34.1250 -0.2500
v  25.0000 24.1250 -0.2500
v  -25.5000 24.1250 -0.2500
v  -25.5000 24.1250 0.2500
v  -25.5000 34.1250 0.2500
v  -25.5000 34.1250 -0.2500
v  25.0000 0.0000 0.2500
v  25.0000 0.0000 -0.2500
v  25.5000 0.0000 -0.2500
v  25.5000 0.0000 0.2500
v  25.0000 34.1250 0.2500
v  25.0000 24.1250 0.2500
v  -25.0000 0.0000 -0.2500
v  -25.0000 0.0000 0.2500
v  -25.5000 0.0000 0.2500
v  -25.5000 0.0000 -0.2500
v  7.3202 21.2157 -0.2500
v  7.3202 21.2157 0.2500
v  0.1687 20.8644 0.2500
v  0.1687 20.8644 -0.2500
v  7.3202 31.2157 0.2500
v  7.3202 31.2157 -0.2500
v  0.1687 30.8644 -0.2500
v  0.1687 30.8644 0.2500
v  -7.6980 21.2157 -0.2500
v  -7.6980 31.2157 -0.2500
v  17.1536 22.4436 0.2500
v  17.1536 32.4436 0.2500
v  -7.6980 21.2157 0.2500
v  -7.6980 31.2157 0.2500
# 44 vertices

vn -0.2100 -0.9777 -0.0000
vn -0.1694 -0.9855 -0.0000
vn 0.1694 0.9855 -0.0000
vn 0.2100 0.9777 -0.0000
vn 0.0000 -0.0000 1.0000
vn 0.0000 0.0000 1.0000
vn 1.0000 0.0000 -0.0000
vn 0.0000 -0.0000 -1.0000
vn 0.0000 0.0000 -1.0000
vn -1.0000 0.0000 -0.0000
vn 0.0000 -1.0000 -0.0000
vn 0.0000 1.0000 -0.0000
vn 0.0865 -0.9962 -0.0000
vn 0.0022 -1.0000 -0.0000
vn -0.0865 0.9962 -0.0000
vn -0.0022 1.0000 -0.0000
vn -0.0000 0.0000 1.0000
vn -0.0000 -0.0000 -1.0000
vn 0.1669 -0.9860 -0.0000
vn -0.1669 0.9860 -0.0000
vn -0.0000 -0.0000 1.0000
vn 0.2095 -0.9778 -0.0000
vn -0.2095 0.9778 -0.0000
vn -0.0866 -0.9962 -0.0000
vn 0.0866 0.9962 -0.0000
vn -0.0000 0.0000 -1.0000
# 26 vertex normals

vt 0.6665 0.9900 0.0000
vt 0.5637 0.9900 0.0000
vt 0.5637 0.9834 0.0000
vt 0.6665 0.9834 0.0000
vt 0.5703 0.9598 0.0000
vt 0.5703 0.9533 0.0000
vt 0.6730 0.9533 0.0000
vt 0.6730 0.9598 0.0000
vt 0.5703 0.6129 0.0000
vt 0.5703 0.4816 0.0000
vt 0.6730 0.4816 0.0000
vt 0.6730 0.6129 0.0000
vt 0.5280 0.9152 0.0000
vt 0.5280 0.9087 0.0000
vt 0.6593 0.9087 0.0000
vt 0.6593 0.9152 0.0000
vt 0.5700 0.1413 0.0000
vt 0.5700 0.0100 0.0000
vt 0.6730 0.0100 0.0000
vt 0.6730 0.1413 0.0000
vt 0.5280 0.9297 0.0000
vt 0.5280 0.9231 0.0000
vt 0.6593 0.9231 0.0000
vt 0.6593 0.9297 0.0000
vt 0.6593 0.7838 0.0000
vt 0.6527 0.7838 0.0000
vt 0.6527 0.7772 0.0000
vt 0.6593 0.7772 0.0000
vt 0.6796 0.0100 0.0000
vt 0.6796 0.1413 0.0000
vt 0.0166 0.9533 0.0000
vt 0.0166 0.9598 0.0000
vt 0.0100 0.9598 0.0000
vt 0.0100 0.9533 0.0000
vt 0.0166 0.4816 0.0000
vt 0.0166 0.6129 0.0000
vt 0.0100 0.6129 0.0000
vt 0.0100 0.4816 0.0000
vt 0.4562 0.7772 0.0000
vt 0.4628 0.7772 0.0000
vt 0.4628 0.7838 0.0000
vt 0.4562 0.7838 0.0000
vt 0.6796 0.4816 0.0000
vt 0.6796 0.6129 0.0000
vt 0.6796 0.9533 0.0000
vt 0.6796 0.9598 0.0000
vt 0.0166 0.0100 0.0000
vt 0.0166 0.1413 0.0000
vt 0.0100 0.1413 0.0000
vt 0.0100 0.0100 0.0000
vt 0.6593 0.8942 0.0000
vt 0.6593 0.9008 0.0000
vt 0.3425 0.9008 0.0000
vt 0.3425 0.8942 0.0000
vt 0.6796 0.4580 0.0000
vt 0.6730 0.4580 0.0000
vt 0.2112 0.9152 0.0000
vt 0.2112 0.9087 0.0000
vt 0.0166 0.9297 0.0000
vt 0.0100 0.9297 0.0000
vt 0.6593 0.8798 0.0000
vt 0.6593 0.8864 0.0000
vt 0.3425 0.8864 0.0000
vt 0.3425 0.8798 0.0000
vt 0.6796 0.9297 0.0000
vt 0.6730 0.9297 0.0000
vt 0.2112 0.9297 0.0000
vt 0.2112 0.9231 0.0000
vt 0.0166 0.4580 0.0000
vt 0.0100 0.4580 0.0000
vt 0.2421 0.9900 0.0000
vt 0.2421 0.9834 0.0000
vt 0.3360 0.9834 0.0000
vt 0.3360 0.9900 0.0000
vt 0.2487 0.9598 0.0000
vt 0.2487 0.9533 0.0000
vt 0.3426 0.9533 0.0000
vt 0.3426 0.9598 0.0000
vt 0.2487 0.6129 0.0000
vt 0.2487 0.4816 0.0000
vt 0.3426 0.4816 0.0000
vt 0.3426 0.6129 0.0000
vt 0.2437 0.1413 0.0000
vt 0.2437 0.0100 0.0000
vt 0.3470 0.0100 0.0000
vt 0.3470 0.1413 0.0000
vt 0.4409 0.0100 0.0000
vt 0.4409 0.1413 0.0000
vt 0.1130 0.9900 0.0000
vt 0.1130 0.9834 0.0000
vt 0.1196 0.9598 0.0000
vt 0.1196 0.9533 0.0000
vt 0.1196 0.6129 0.0000
vt 0.1196 0.4816 0.0000
vt 0.0100 0.9900 0.0000
vt 0.0100 0.9834 0.0000
vt 0.4393 0.9900 0.0000
vt 0.4393 0.9834 0.0000
vt 0.4459 0.9598 0.0000
vt 0.4459 0.9533 0.0000
vt 0.4459 0.6129 0.0000
vt 0.4459 0.4816 0.0000
vt 0.1193 0.0100 0.0000
vt 0.1193 0.1413 0.0000
# 104 texture coords

g Box002
f 1/1/1 2/2/2 3/3/2 
f 3/3/2 4/4/1 1/1/1 
f 5/5/3 6/6/3 7/7/4 
f 7/7/4 8/8/4 5/5/3 
f 3/9/5 5/10/5 8/11/5 
f 8/11/5 4/12/6 3/9/5 
f 9/13/7 10/14/7 11/15/7 
f 11/15/7 12/16/7 9/13/7 
f 13/17/8 14/18/8 15/19/8 
f 15/19/8 16/20/9 13/17/8 
f 17/21/10 18/22/10 19/23/10 
f 19/23/10 20/24/10 17/21/10 
f 21/25/11 22/26/11 23/27/11 
f 23/27/11 24/28/11 21/25/11 
f 16/20/9 15/19/9 11/29/9 
f 11/29/9 10/30/9 16/20/9 
f 15/31/12 25/32/12 12/33/12 
f 12/33/12 11/34/12 15/31/12 
f 25/35/6 26/36/6 9/37/6 
f 9/37/6 12/38/6 25/35/6 
f 27/39/11 28/40/11 29/41/11 
f 29/41/11 30/42/11 27/39/11 
f 4/12/6 8/11/6 19/43/6 
f 19/43/6 18/44/6 4/12/6 
f 8/8/12 7/7/12 20/45/12 
f 20/45/12 19/46/12 8/8/12 
f 7/47/9 1/48/9 17/49/9 
f 17/49/9 20/50/9 7/47/9 
f 26/51/10 16/52/10 22/53/10 
f 22/53/10 21/54/10 26/51/10 
f 16/20/9 10/30/9 23/55/9 
f 23/55/9 22/56/9 16/20/9 
f 10/14/7 9/13/7 24/57/7 
f 24/57/7 23/58/7 10/14/7 
f 9/37/6 26/36/6 21/59/6 
f 21/59/6 24/60/6 9/37/6 
f 1/61/7 4/62/7 28/63/7 
f 28/63/7 27/64/7 1/61/7 
f 4/12/6 18/44/6 29/65/6 
f 29/65/6 28/66/6 4/12/6 
f 18/22/10 17/21/10 30/67/10 
f 30/67/10 29/68/10 18/22/10 
f 17/49/9 1/48/9 27/69/9 
f 27/69/9 30/70/9 17/49/9 
f 31/71/13 32/72/13 33/73/14 
f 33/73/14 34/74/14 31/71/13 
f 35/75/15 36/76/15 37/77/16 
f 37/77/16 38/78/16 35/75/15 
f 32/79/17 35/80/17 38/81/17 
f 38/81/17 33/82/17 32/79/17 
f 39/83/18 40/84/18 37/85/8 
f 37/85/8 34/86/8 39/83/18 
f 34/86/8 37/85/8 36/87/8 
f 36/87/8 31/88/8 34/86/8 
f 13/89/19 41/90/19 32/72/13 
f 32/72/13 31/71/13 13/89/19 
f 42/91/20 14/92/20 36/76/15 
f 36/76/15 35/75/15 42/91/20 
f 41/93/21 42/94/21 35/80/17 
f 35/80/17 32/79/17 41/93/21 
f 31/88/8 36/87/8 14/18/8 
f 14/18/8 13/17/8 31/88/8 
f 16/95/22 26/96/22 41/90/19 
f 41/90/19 13/89/19 16/95/22 
f 25/32/23 15/31/23 14/92/20 
f 14/92/20 42/91/20 25/32/23 
f 26/36/21 25/35/17 42/94/21 
f 42/94/21 41/93/21 26/36/21 
f 39/97/24 43/98/24 3/3/2 
f 3/3/2 2/2/2 39/97/24 
f 44/99/25 40/100/25 6/6/3 
f 6/6/3 5/5/3 44/99/25 
f 43/101/6 44/102/6 5/10/5 
f 5/10/5 3/9/5 43/101/6 
f 1/48/18 7/47/26 6/103/18 
f 6/103/18 2/104/18 1/48/18 
f 2/104/18 6/103/18 40/84/18 
f 40/84/18 39/83/18 2/104/18 
f 34/74/14 33/73/14 43/98/24 
f 43/98/24 39/97/24 34/74/14 
f 38/78/16 37/77/16 40/100/25 
f 40/100/25 44/99/25 38/78/16 
f 33/82/17 38/81/17 44/102/6 
f 44/102/6 43/101/6 33/82/17 
# 84 faces

