# 3ds Max Wavefront OBJ Exporter v0.97b - (c)2007 guruware
# File Created: 24.02.2017 11:26:40

#
# object Sphere001
#

v  -24.5613 5.0000 -0.0000
v  -24.5613 4.6194 -1.9134
v  -25.2936 4.6194 -1.7678
v  -25.9143 4.6194 -1.3530
v  -26.3291 4.6194 -0.7322
v  -26.4748 4.6194 -0.0000
v  -26.3291 4.6194 0.7322
v  -25.9143 4.6194 1.3530
v  -25.2936 4.6194 1.7678
v  25.4385 4.6194 1.9134
v  26.1708 4.6194 1.7678
v  26.7915 4.6194 1.3530
v  27.2063 4.6194 0.7322
v  27.3520 4.6194 -0.0000
v  27.2063 4.6194 -0.7322
v  26.7915 4.6194 -1.3530
v  26.1708 4.6194 -1.7678
v  -25.9143 3.5355 -3.2664
v  -24.5613 3.5355 -3.5355
v  -27.0613 3.5355 -2.5000
v  -27.8278 3.5355 -1.3530
v  -28.0969 3.5355 -0.0000
v  -27.8278 3.5355 1.3530
v  -27.0613 3.5355 2.5000
v  -25.9143 3.5355 3.2664
v  25.4385 3.5355 3.5355
v  26.7915 3.5355 3.2664
v  27.9385 3.5355 2.5000
v  28.7049 3.5355 1.3530
v  28.9741 3.5355 -0.0000
v  28.7049 3.5355 -1.3530
v  27.9385 3.5355 -2.5000
v  26.7915 3.5355 -3.2664
v  -26.3291 1.9134 -4.2678
v  -24.5613 1.9134 -4.6194
v  -27.8278 1.9134 -3.2664
v  -28.8291 1.9134 -1.7678
v  -29.1807 1.9134 -0.0000
v  -28.8291 1.9134 1.7678
v  -27.8278 1.9134 3.2664
v  -26.3291 1.9134 4.2678
v  25.4385 1.9134 4.6194
v  27.2063 1.9134 4.2678
v  28.7049 1.9134 3.2664
v  29.7063 1.9134 1.7678
v  30.0579 1.9134 -0.0000
v  29.7063 1.9134 -1.7678
v  28.7049 1.9134 -3.2664
v  27.2063 1.9134 -4.2678
v  -26.4748 -0.0000 -4.6194
v  -24.5613 -0.0000 -5.0000
v  -28.0969 -0.0000 -3.5355
v  -29.1807 -0.0000 -1.9134
v  -29.5613 -0.0000 -0.0000
v  -29.1807 -0.0000 1.9134
v  -28.0969 -0.0000 3.5355
v  -26.4748 -0.0000 4.6194
v  25.4385 -0.0000 5.0000
v  27.3520 -0.0000 4.6194
v  28.9741 -0.0000 3.5355
v  30.0579 -0.0000 1.9134
v  30.4385 -0.0000 -0.0000
v  30.0579 -0.0000 -1.9134
v  28.9741 -0.0000 -3.5355
v  27.3519 -0.0000 -4.6194
v  -26.3291 -1.9134 -4.2678
v  -24.5613 -1.9134 -4.6194
v  -27.8278 -1.9134 -3.2664
v  -28.8291 -1.9134 -1.7678
v  -29.1807 -1.9134 -0.0000
v  -28.8291 -1.9134 1.7678
v  -27.8278 -1.9134 3.2664
v  -26.3291 -1.9134 4.2678
v  25.4385 -1.9134 4.6194
v  27.2063 -1.9134 4.2678
v  28.7049 -1.9134 3.2664
v  29.7063 -1.9134 1.7678
v  30.0579 -1.9134 -0.0000
v  29.7063 -1.9134 -1.7678
v  28.7049 -1.9134 -3.2664
v  27.2063 -1.9134 -4.2678
v  -25.9143 -3.5355 -3.2664
v  -24.5613 -3.5355 -3.5355
v  -27.0613 -3.5355 -2.5000
v  -27.8278 -3.5355 -1.3530
v  -28.0969 -3.5355 -0.0000
v  -27.8278 -3.5355 1.3530
v  -27.0613 -3.5355 2.5000
v  -25.9143 -3.5355 3.2664
v  25.4385 -3.5355 3.5355
v  26.7915 -3.5355 3.2664
v  27.9385 -3.5355 2.5000
v  28.7049 -3.5355 1.3530
v  28.9741 -3.5355 -0.0000
v  28.7049 -3.5355 -1.3530
v  27.9385 -3.5355 -2.5000
v  26.7915 -3.5355 -3.2664
v  -25.2936 -4.6194 -1.7678
v  -24.5613 -4.6194 -1.9134
v  -25.9143 -4.6194 -1.3530
v  -26.3291 -4.6194 -0.7322
v  -26.4748 -4.6194 -0.0000
v  -26.3291 -4.6194 0.7322
v  -25.9143 -4.6194 1.3530
v  -25.2936 -4.6194 1.7678
v  25.4385 -4.6194 1.9134
v  26.1708 -4.6194 1.7678
v  26.7915 -4.6194 1.3530
v  27.2063 -4.6194 0.7322
v  27.3520 -4.6194 -0.0000
v  27.2063 -4.6194 -0.7322
v  26.7915 -4.6194 -1.3530
v  26.1708 -4.6194 -1.7678
v  -24.5613 -5.0000 -0.0000
# 114 vertices

vn -0.0618 0.9981 0.0047
vn -0.0393 0.9188 -0.3927
vn -0.1543 0.9152 -0.3724
vn -0.2850 0.9152 -0.2850
vn -0.3724 0.9152 -0.1543
vn -0.4031 0.9152 0.0000
vn -0.3724 0.9152 0.1543
vn -0.2850 0.9152 0.2850
vn -0.1164 0.9101 0.3978
vn 0.0344 0.9462 0.3218
vn 0.1265 0.9444 0.3033
vn 0.2313 0.9451 0.2308
vn 0.3013 0.9454 0.1246
vn 0.3258 0.9454 -0.0000
vn 0.3013 0.9454 -0.1246
vn 0.2313 0.9451 -0.2308
vn 0.0962 0.9385 -0.3317
vn -0.2751 0.6952 -0.6641
vn -0.0688 0.6993 -0.7115
vn -0.5083 0.6952 -0.5083
vn -0.6641 0.6952 -0.2751
vn -0.7189 0.6952 -0.0000
vn -0.6641 0.6952 0.2751
vn -0.5083 0.6952 0.5083
vn -0.2105 0.6882 0.6943
vn 0.0688 0.6993 0.7115
vn 0.2751 0.6952 0.6641
vn 0.5083 0.6952 0.5083
vn 0.6641 0.6952 0.2751
vn 0.7189 0.6952 -0.0000
vn 0.6641 0.6952 -0.2751
vn 0.5083 0.6952 -0.5083
vn 0.2105 0.6882 -0.6943
vn -0.3549 0.3744 -0.8567
vn -0.0873 0.3768 -0.9222
vn -0.6557 0.3744 -0.6557
vn -0.8567 0.3744 -0.3549
vn -0.9273 0.3744 -0.0000
vn -0.8567 0.3744 0.3549
vn -0.6557 0.3744 0.6557
vn -0.2743 0.3695 0.8878
vn 0.0873 0.3768 0.9222
vn 0.3549 0.3744 0.8567
vn 0.6557 0.3744 0.6557
vn 0.8567 0.3744 0.3549
vn 0.9273 0.3744 -0.0000
vn 0.8567 0.3744 -0.3549
vn 0.6557 0.3744 -0.6557
vn 0.2743 0.3695 -0.8878
vn -0.3827 -0.0000 -0.9239
vn -0.0933 -0.0001 -0.9956
vn -0.7071 -0.0000 -0.7071
vn -0.9239 -0.0000 -0.3827
vn -1.0000 0.0000 -0.0000
vn -0.9239 0.0000 0.3827
vn -0.7071 -0.0000 0.7071
vn -0.2967 -0.0001 0.9550
vn 0.0933 -0.0001 0.9956
vn 0.3827 -0.0000 0.9239
vn 0.7071 -0.0000 0.7071
vn 0.9239 -0.0000 0.3827
vn 1.0000 0.0000 -0.0000
vn 0.9239 0.0000 -0.3827
vn 0.7071 0.0000 -0.7071
vn 0.2967 -0.0001 -0.9550
vn -0.3549 -0.3744 -0.8567
vn -0.0868 -0.3769 -0.9222
vn -0.6557 -0.3744 -0.6557
vn -0.8567 -0.3744 -0.3549
vn -0.9273 -0.3744 -0.0000
vn -0.8567 -0.3744 0.3549
vn -0.6557 -0.3744 0.6557
vn -0.2739 -0.3696 0.8879
vn 0.0868 -0.3769 0.9222
vn 0.3549 -0.3744 0.8567
vn 0.6557 -0.3744 0.6557
vn 0.8567 -0.3744 0.3549
vn 0.9273 -0.3744 -0.0000
vn 0.8567 -0.3744 -0.3549
vn 0.6557 -0.3744 -0.6557
vn 0.2739 -0.3696 -0.8879
vn -0.2751 -0.6952 -0.6641
vn -0.0682 -0.6993 -0.7116
vn -0.5083 -0.6952 -0.5083
vn -0.6641 -0.6952 -0.2751
vn -0.7189 -0.6952 -0.0000
vn -0.6641 -0.6952 0.2751
vn -0.5083 -0.6952 0.5083
vn -0.2098 -0.6882 0.6945
vn 0.0682 -0.6993 0.7116
vn 0.2751 -0.6952 0.6641
vn 0.5083 -0.6952 0.5083
vn 0.6641 -0.6952 0.2751
vn 0.7189 -0.6952 -0.0000
vn 0.6641 -0.6952 -0.2751
vn 0.5083 -0.6952 -0.5083
vn 0.2098 -0.6882 -0.6945
vn -0.1543 -0.9152 -0.3724
vn -0.0389 -0.9188 -0.3929
vn -0.2850 -0.9152 -0.2850
vn -0.3724 -0.9152 -0.1543
vn -0.4031 -0.9152 -0.0000
vn -0.3724 -0.9152 0.1543
vn -0.2850 -0.9152 0.2850
vn -0.1160 -0.9100 0.3981
vn 0.0340 -0.9461 0.3220
vn 0.1265 -0.9444 0.3034
vn 0.2313 -0.9451 0.2308
vn 0.3013 -0.9454 0.1246
vn 0.3258 -0.9454 -0.0000
vn 0.3013 -0.9454 -0.1246
vn 0.2313 -0.9451 -0.2308
vn 0.0958 -0.9384 -0.3321
vn -0.0618 -0.9981 0.0047
# 114 vertex normals

vt 0.2500 -1.3147 1.0000
vt 0.1875 -1.3147 1.0000
vt 0.1918 -1.3679 0.9892
vt 0.2047 -1.4129 0.9627
vt 0.2250 -1.4430 0.9354
vt 0.2500 -1.4536 0.9239
vt 0.2750 -1.4430 0.9354
vt 0.2953 -1.4129 0.9627
vt 0.3082 -1.3679 0.9892
vt 0.3125 2.3147 1.0000
vt 0.3082 2.3679 0.9892
vt 0.2953 2.4129 0.9627
vt 0.2750 2.4430 0.9354
vt 0.2500 2.4536 0.9239
vt 0.2250 2.4430 0.9354
vt 0.2047 2.4129 0.9627
vt 0.1918 2.3679 0.9892
vt 0.1313 -1.4129 0.9627
vt 0.1250 -1.3147 1.0000
vt 0.1520 -1.4962 0.8660
vt 0.1918 -1.5518 0.7571
vt 0.2500 -1.5714 0.7071
vt 0.3082 -1.5518 0.7571
vt 0.3480 -1.4962 0.8660
vt 0.3687 -1.4129 0.9627
vt 0.3750 2.3147 1.0000
vt 0.3687 2.4129 0.9627
vt 0.3480 2.4962 0.8660
vt 0.3082 2.5518 0.7571
vt 0.2500 2.5714 0.7071
vt 0.1918 2.5518 0.7571
vt 0.1520 2.4962 0.8660
vt 0.1313 2.4129 0.9627
vt 0.0671 -1.4430 0.9354
vt 0.0625 -1.3147 1.0000
vt 0.0843 -1.5518 0.7571
vt 0.1313 -1.6245 0.5210
vt 0.2500 -1.6500 0.3827
vt 0.3687 -1.6245 0.5210
vt 0.4157 -1.5518 0.7571
vt 0.4329 -1.4430 0.9354
vt 0.4375 2.3147 1.0000
vt 0.4329 2.4430 0.9354
vt 0.4157 2.5518 0.7571
vt 0.3687 2.6245 0.5210
vt 0.2500 2.6500 0.3827
vt 0.1313 2.6245 0.5210
vt 0.0843 2.5518 0.7571
vt 0.0671 2.4430 0.9354
vt -0.0000 -1.4536 0.9239
vt 0.0000 -1.3147 1.0000
vt -0.0000 -1.5714 0.7071
vt -0.0000 -1.6500 0.3827
vt -0.5000 -1.6777 0.0000
vt -0.7500 -1.6500 0.3827
vt -0.8687 -1.6245 0.5210
vt 0.5000 -1.6500 0.3827
vt 0.5000 -1.6777 0.0000
vt 0.5000 -1.5714 0.7071
vt 0.5000 -1.4536 0.9239
vt 0.5000 2.3147 1.0000
vt 0.5000 2.4536 0.9239
vt 0.5000 2.5714 0.7071
vt 0.5000 2.6500 0.3827
vt 0.5000 2.6777 0.0000
vt 0.0000 2.6500 0.3827
vt 0.0000 2.5714 0.7071
vt 0.0000 2.4536 0.9239
vt 0.9329 -1.4430 0.9354
vt 1.0000 -1.4536 0.9239
vt 1.0000 -1.3147 1.0000
vt 0.9375 -1.3147 1.0000
vt 0.9157 -1.5518 0.7571
vt 1.0000 -1.5714 0.7071
vt 0.8687 -1.6245 0.5210
vt 1.0000 -1.6500 0.3827
vt 0.7500 -1.6500 0.3827
vt 0.6313 -1.6245 0.5210
vt 0.5843 -1.5518 0.7571
vt 0.5671 -1.4430 0.9354
vt 0.5625 2.3147 1.0000
vt 0.5671 2.4430 0.9354
vt 0.5843 2.5518 0.7571
vt 0.6313 2.6245 0.5210
vt 0.7500 2.6500 0.3827
vt 0.8687 2.6245 0.5210
vt 1.0000 2.6500 0.3827
vt 1.5000 2.6777 0.0000
vt -0.0843 2.5518 0.7571
vt -0.1313 2.6245 0.5210
vt -0.0671 2.4430 0.9354
vt -0.0625 -1.3147 1.0000
vt 0.8687 -1.4129 0.9627
vt 0.8750 -1.3147 1.0000
vt 0.8480 -1.4962 0.8660
vt 0.8082 -1.5518 0.7571
vt 0.7500 -1.5714 0.7071
vt 0.6918 -1.5518 0.7571
vt 0.6520 -1.4962 0.8660
vt 0.6313 -1.4129 0.9627
vt 0.6250 2.3147 1.0000
vt 0.6313 2.4129 0.9627
vt 0.6520 2.4962 0.8660
vt 0.6918 2.5518 0.7571
vt 0.7500 2.5714 0.7071
vt 0.8082 2.5518 0.7571
vt 0.8480 2.4962 0.8660
vt 0.9157 2.5518 0.7571
vt 0.8687 2.4129 0.9627
vt 0.9329 2.4430 0.9354
vt 0.8082 -1.3679 0.9892
vt 0.8125 -1.3147 1.0000
vt 0.7953 -1.4129 0.9627
vt 0.7750 -1.4430 0.9354
vt 0.7500 -1.4536 0.9239
vt 0.7250 -1.4430 0.9354
vt 0.7047 -1.4129 0.9627
vt 0.6918 -1.3679 0.9892
vt 0.6875 2.3147 1.0000
vt 0.6918 2.3679 0.9892
vt 0.7047 2.4129 0.9627
vt 0.7250 2.4430 0.9354
vt 0.7500 2.4536 0.9239
vt 0.7750 2.4430 0.9354
vt 0.7953 2.4129 0.9627
vt 0.8082 2.3679 0.9892
vt 0.7500 -1.3147 1.0000
# 127 texture coords

g Sphere001
f 1/1/1 2/2/2 3/3/3 
f 1/1/1 3/3/3 4/4/4 
f 1/1/1 4/4/4 5/5/5 
f 1/1/1 5/5/5 6/6/6 
f 1/1/1 6/6/6 7/7/7 
f 1/1/1 7/7/7 8/8/8 
f 1/1/1 8/8/8 9/9/9 
f 1/1/1 9/9/9 10/10/10 
f 1/1/1 10/10/10 11/11/11 
f 1/1/1 11/11/11 12/12/12 
f 1/1/1 12/12/12 13/13/13 
f 1/1/1 13/13/13 14/14/14 
f 1/1/1 14/14/14 15/15/15 
f 1/1/1 15/15/15 16/16/16 
f 1/1/1 16/16/16 17/17/17 
f 1/1/1 17/17/17 2/2/2 
f 18/18/18 3/3/3 2/2/2 
f 2/2/2 19/19/19 18/18/18 
f 20/20/20 4/4/4 3/3/3 
f 3/3/3 18/18/18 20/20/20 
f 21/21/21 5/5/5 4/4/4 
f 4/4/4 20/20/20 21/21/21 
f 22/22/22 6/6/6 5/5/5 
f 5/5/5 21/21/21 22/22/22 
f 23/23/23 7/7/7 6/6/6 
f 6/6/6 22/22/22 23/23/23 
f 24/24/24 8/8/8 7/7/7 
f 7/7/7 23/23/23 24/24/24 
f 25/25/25 9/9/9 8/8/8 
f 8/8/8 24/24/24 25/25/25 
f 26/26/26 10/10/10 9/9/9 
f 9/9/9 25/25/25 26/26/26 
f 27/27/27 11/11/11 10/10/10 
f 10/10/10 26/26/26 27/27/27 
f 28/28/28 12/12/12 11/11/11 
f 11/11/11 27/27/27 28/28/28 
f 29/29/29 13/13/13 12/12/12 
f 12/12/12 28/28/28 29/29/29 
f 30/30/30 14/14/14 13/13/13 
f 13/13/13 29/29/29 30/30/30 
f 31/31/31 15/15/15 14/14/14 
f 14/14/14 30/30/30 31/31/31 
f 32/32/32 16/16/16 15/15/15 
f 15/15/15 31/31/31 32/32/32 
f 33/33/33 17/17/17 16/16/16 
f 16/16/16 32/32/32 33/33/33 
f 19/19/19 2/2/2 17/17/17 
f 17/17/17 33/33/33 19/19/19 
f 34/34/34 18/18/18 19/19/19 
f 19/19/19 35/35/35 34/34/34 
f 36/36/36 20/20/20 18/18/18 
f 18/18/18 34/34/34 36/36/36 
f 37/37/37 21/21/21 20/20/20 
f 20/20/20 36/36/36 37/37/37 
f 38/38/38 22/22/22 21/21/21 
f 21/21/21 37/37/37 38/38/38 
f 39/39/39 23/23/23 22/22/22 
f 22/22/22 38/38/38 39/39/39 
f 40/40/40 24/24/24 23/23/23 
f 23/23/23 39/39/39 40/40/40 
f 41/41/41 25/25/25 24/24/24 
f 24/24/24 40/40/40 41/41/41 
f 42/42/42 26/26/26 25/25/25 
f 25/25/25 41/41/41 42/42/42 
f 43/43/43 27/27/27 26/26/26 
f 26/26/26 42/42/42 43/43/43 
f 44/44/44 28/28/28 27/27/27 
f 27/27/27 43/43/43 44/44/44 
f 45/45/45 29/29/29 28/28/28 
f 28/28/28 44/44/44 45/45/45 
f 46/46/46 30/30/30 29/29/29 
f 29/29/29 45/45/45 46/46/46 
f 47/47/47 31/31/31 30/30/30 
f 30/30/30 46/46/46 47/47/47 
f 48/48/48 32/32/32 31/31/31 
f 31/31/31 47/47/47 48/48/48 
f 49/49/49 33/33/33 32/32/32 
f 32/32/32 48/48/48 49/49/49 
f 35/35/35 19/19/19 33/33/33 
f 33/33/33 49/49/49 35/35/35 
f 50/50/50 34/34/34 35/35/35 
f 35/35/35 51/51/51 50/50/50 
f 52/52/52 36/36/36 34/34/34 
f 34/34/34 50/50/50 52/52/52 
f 53/53/53 37/37/37 36/36/36 
f 36/36/36 52/52/52 53/53/53 
f 54/54/54 38/55/38 37/56/37 
f 37/56/37 53/53/53 54/54/54 
f 55/57/55 39/39/39 38/38/38 
f 38/38/38 54/58/54 55/57/55 
f 56/59/56 40/40/40 39/39/39 
f 39/39/39 55/57/55 56/59/56 
f 57/60/57 41/41/41 40/40/40 
f 40/40/40 56/59/56 57/60/57 
f 58/61/58 42/42/42 41/41/41 
f 41/41/41 57/60/57 58/61/58 
f 59/62/59 43/43/43 42/42/42 
f 42/42/42 58/61/58 59/62/59 
f 60/63/60 44/44/44 43/43/43 
f 43/43/43 59/62/59 60/63/60 
f 61/64/61 45/45/45 44/44/44 
f 44/44/44 60/63/60 61/64/61 
f 62/65/62 46/46/46 45/45/45 
f 45/45/45 61/64/61 62/65/62 
f 63/66/63 47/47/47 46/46/46 
f 46/46/46 62/65/62 63/66/63 
f 64/67/64 48/48/48 47/47/47 
f 47/47/47 63/66/63 64/67/64 
f 65/68/65 49/49/49 48/48/48 
f 48/48/48 64/67/64 65/68/65 
f 51/51/51 35/35/35 49/49/49 
f 49/49/49 65/68/65 51/51/51 
f 66/69/66 50/70/50 51/71/51 
f 51/71/51 67/72/67 66/69/66 
f 68/73/68 52/74/52 50/70/50 
f 50/70/50 66/69/66 68/73/68 
f 69/75/69 53/76/53 52/74/52 
f 52/74/52 68/73/68 69/75/69 
f 70/77/70 54/58/54 53/76/53 
f 53/76/53 69/75/69 70/77/70 
f 71/78/71 55/57/55 54/58/54 
f 54/58/54 70/77/70 71/78/71 
f 72/79/72 56/59/56 55/57/55 
f 55/57/55 71/78/71 72/79/72 
f 73/80/73 57/60/57 56/59/56 
f 56/59/56 72/79/72 73/80/73 
f 74/81/74 58/61/58 57/60/57 
f 57/60/57 73/80/73 74/81/74 
f 75/82/75 59/62/59 58/61/58 
f 58/61/58 74/81/74 75/82/75 
f 76/83/76 60/63/60 59/62/59 
f 59/62/59 75/82/75 76/83/76 
f 77/84/77 61/64/61 60/63/60 
f 60/63/60 76/83/76 77/84/77 
f 78/85/78 62/65/62 61/64/61 
f 61/64/61 77/84/77 78/85/78 
f 79/86/79 63/87/63 62/88/62 
f 62/88/62 78/85/78 79/86/79 
f 80/89/80 64/67/64 63/66/63 
f 63/66/63 79/90/79 80/89/80 
f 81/91/81 65/68/65 64/67/64 
f 64/67/64 80/89/80 81/91/81 
f 67/92/67 51/51/51 65/68/65 
f 65/68/65 81/91/81 67/92/67 
f 82/93/82 66/69/66 67/72/67 
f 67/72/67 83/94/83 82/93/82 
f 84/95/84 68/73/68 66/69/66 
f 66/69/66 82/93/82 84/95/84 
f 85/96/85 69/75/69 68/73/68 
f 68/73/68 84/95/84 85/96/85 
f 86/97/86 70/77/70 69/75/69 
f 69/75/69 85/96/85 86/97/86 
f 87/98/87 71/78/71 70/77/70 
f 70/77/70 86/97/86 87/98/87 
f 88/99/88 72/79/72 71/78/71 
f 71/78/71 87/98/87 88/99/88 
f 89/100/89 73/80/73 72/79/72 
f 72/79/72 88/99/88 89/100/89 
f 90/101/90 74/81/74 73/80/73 
f 73/80/73 89/100/89 90/101/90 
f 91/102/91 75/82/75 74/81/74 
f 74/81/74 90/101/90 91/102/91 
f 92/103/92 76/83/76 75/82/75 
f 75/82/75 91/102/91 92/103/92 
f 93/104/93 77/84/77 76/83/76 
f 76/83/76 92/103/92 93/104/93 
f 94/105/94 78/85/78 77/84/77 
f 77/84/77 93/104/93 94/105/94 
f 95/106/95 79/86/79 78/85/78 
f 78/85/78 94/105/94 95/106/95 
f 96/107/96 80/108/80 79/86/79 
f 79/86/79 95/106/95 96/107/96 
f 97/109/97 81/110/81 80/108/80 
f 80/108/80 96/107/96 97/109/97 
f 83/94/83 67/72/67 81/110/81 
f 81/110/81 97/109/97 83/94/83 
f 98/111/98 82/93/82 83/94/83 
f 83/94/83 99/112/99 98/111/98 
f 100/113/100 84/95/84 82/93/82 
f 82/93/82 98/111/98 100/113/100 
f 101/114/101 85/96/85 84/95/84 
f 84/95/84 100/113/100 101/114/101 
f 102/115/102 86/97/86 85/96/85 
f 85/96/85 101/114/101 102/115/102 
f 103/116/103 87/98/87 86/97/86 
f 86/97/86 102/115/102 103/116/103 
f 104/117/104 88/99/88 87/98/87 
f 87/98/87 103/116/103 104/117/104 
f 105/118/105 89/100/89 88/99/88 
f 88/99/88 104/117/104 105/118/105 
f 106/119/106 90/101/90 89/100/89 
f 89/100/89 105/118/105 106/119/106 
f 107/120/107 91/102/91 90/101/90 
f 90/101/90 106/119/106 107/120/107 
f 108/121/108 92/103/92 91/102/91 
f 91/102/91 107/120/107 108/121/108 
f 109/122/109 93/104/93 92/103/92 
f 92/103/92 108/121/108 109/122/109 
f 110/123/110 94/105/94 93/104/93 
f 93/104/93 109/122/109 110/123/110 
f 111/124/111 95/106/95 94/105/94 
f 94/105/94 110/123/110 111/124/111 
f 112/125/112 96/107/96 95/106/95 
f 95/106/95 111/124/111 112/125/112 
f 113/126/113 97/109/97 96/107/96 
f 96/107/96 112/125/112 113/126/113 
f 99/112/99 83/94/83 97/109/97 
f 97/109/97 113/126/113 99/112/99 
f 114/127/114 98/111/98 99/112/99 
f 114/127/114 100/113/100 98/111/98 
f 114/127/114 101/114/101 100/113/100 
f 114/127/114 102/115/102 101/114/101 
f 114/127/114 103/116/103 102/115/102 
f 114/127/114 104/117/104 103/116/103 
f 114/127/114 105/118/105 104/117/104 
f 114/127/114 106/119/106 105/118/105 
f 114/127/114 107/120/107 106/119/106 
f 114/127/114 108/121/108 107/120/107 
f 114/127/114 109/122/109 108/121/108 
f 114/127/114 110/123/110 109/122/109 
f 114/127/114 111/124/111 110/123/110 
f 114/127/114 112/125/112 111/124/111 
f 114/127/114 113/126/113 112/125/112 
f 114/127/114 99/112/99 113/126/113 
# 224 faces

