# 3ds Max Wavefront OBJ Exporter v0.97b - (c)2007 guruware
# File Created: 06.02.2017 14:02:34

mtllib temp_boat.mtl

#
# object Box001
#

v  -18.0319 0.0000 4.1564
v  6.4474 0.0214 4.1564
v  6.4474 0.0214 5.1367
v  -18.0319 0.0000 5.1367
v  10.0000 10.0000 10.0000
v  10.0000 10.0000 8.0914
v  -9.2746 10.0000 8.0914
v  -9.2746 10.0000 10.0000
v  8.0903 4.6360 9.4774
v  -13.9821 4.6244 9.4774
v  29.5042 4.2589 1.2920
v  29.5042 4.2589 1.0454
v  31.6798 6.9138 1.9288
v  31.6798 6.9138 2.3838
v  6.4474 0.0214 -5.1367
v  -18.0319 0.0000 -5.1367
v  -13.9821 4.6244 -9.4774
v  8.0903 4.6360 -9.4774
v  -18.0319 0.0000 -4.1714
v  -13.9821 4.6244 -7.6963
v  15.3689 0.2767 3.5041
v  15.3689 0.2767 4.3306
v  17.5105 4.7732 -7.9900
v  15.3689 0.2767 -4.3306
v  10.0000 10.0000 -8.1206
v  20.0000 10.0000 -6.8462
v  20.0000 10.0000 -8.4306
v  10.0000 10.0000 -10.0000
v  17.5105 4.7732 7.9900
v  20.0000 10.0000 8.4306
v  22.3521 1.1377 2.0987
v  22.3521 1.1377 2.5938
v  25.8889 5.2360 -4.7856
v  22.3521 1.1377 -2.5938
v  30.0000 10.0000 -4.1005
v  30.0000 10.0000 -5.0495
v  25.8889 5.2360 4.7856
v  30.0000 10.0000 5.0495
v  31.6798 6.9138 -2.3838
v  29.5042 4.2589 -1.2920
v  33.1380 10.0000 -2.0425
v  33.1380 10.0000 -2.5152
v  33.1380 10.0000 2.5152
v  31.6798 6.9138 -1.9358
v  -9.2746 10.0000 -10.0000
v  -13.9821 4.6244 7.6686
v  6.4474 0.0214 -4.1714
v  -9.2746 10.0000 -8.1206
v  29.5042 4.2589 -1.0492
v  -18.0319 0.0000 -3.2076
v  -13.9821 4.6244 -5.9180
v  15.3689 0.2767 -3.5167
v  10.0000 4.5869 -8.1662
v  20.0000 10.0000 -6.3799
v  22.3521 1.1377 -2.1063
v  30.0000 10.0000 -3.1531
v  33.1380 10.0000 -1.5706
v  31.6798 6.9138 -1.4885
v  -18.0319 0.0000 3.0386
v  6.4474 0.0214 3.0386
v  10.0000 4.5869 7.8372
v  -9.2746 4.5869 7.8372
v  29.5042 4.2589 0.7643
v  31.6798 6.9138 1.4101
v  15.3689 0.2767 2.5617
v  22.3521 1.1377 1.5343
v  -13.9821 4.6244 5.6062
v  20.0000 10.0000 6.8216
v  30.0000 10.0000 4.0857
v  33.1380 10.0000 2.0352
v  20.0000 10.0000 6.1026
v  30.0000 10.0000 2.9869
v  33.1380 10.0000 1.4879
v  6.4474 0.0214 -3.2076
v  -9.2746 4.5869 -8.1662
v  29.5042 4.2589 -0.8068
v  15.3689 0.2767 -2.7042
v  22.3521 1.1377 -1.6196
v  15.7155 13.6739 2.8569
v  26.3708 10.0261 3.0540
v  26.3708 10.0261 -3.2201
v  15.7155 13.6739 -3.1343
# 82 vertices

vn -0.9105 -0.4134 0.0000
vn 0.0147 -0.9999 -0.0000
vn 0.0277 -0.9159 0.4004
vn -0.8319 -0.4137 0.3699
vn 0.0000 1.0000 -0.0000
vn 0.0624 -0.4188 0.9059
vn -0.6292 0.0532 0.7754
vn 0.5695 -0.7744 0.2756
vn 0.6035 -0.7974 -0.0000
vn 0.8452 -0.5345 -0.0000
vn 0.7351 -0.5327 0.4193
vn 0.0277 -0.9159 -0.4004
vn -0.8319 -0.4137 -0.3699
vn -0.6292 0.0532 -0.7754
vn 0.0624 -0.4188 -0.9059
vn -0.9105 -0.4134 -0.0000
vn -0.7523 0.6588 -0.0000
vn 0.0756 -0.9971 0.0000
vn 0.1321 -0.9070 0.3998
vn 0.2289 -0.4387 -0.8690
vn 0.1321 -0.9070 -0.3998
vn 0.0944 -0.1308 0.9869
vn 0.2289 -0.4387 0.8690
vn 0.2734 -0.2279 0.9345
vn 0.2639 -0.9645 0.0000
vn 0.3014 -0.8878 0.3477
vn 0.3756 -0.5120 -0.7725
vn 0.3014 -0.8878 -0.3477
vn 0.3756 -0.5120 0.7725
vn 0.4500 -0.3661 0.8145
vn 0.7351 -0.5327 -0.4193
vn 0.5695 -0.7744 -0.2756
vn 0.8361 -0.4105 0.3638
vn -0.4247 0.2884 0.8582
vn 0.8361 -0.4105 -0.3638
vn 0.9042 -0.4272 -0.0000
vn 0.8452 -0.5345 0.0000
vn -0.4247 0.2884 -0.8582
vn 0.0944 -0.1308 -0.9869
vn -0.7523 0.6588 0.0000
vn 0.2734 -0.2279 -0.9345
vn 0.4500 -0.3661 -0.8145
vn 0.6035 -0.7974 0.0000
vn -0.4981 0.8671 -0.0000
vn -0.0588 0.0050 0.9983
vn -0.4760 0.8794 -0.0000
vn -0.4855 0.8301 0.2742
vn -0.0634 -0.0084 0.9980
vn 0.2639 -0.9645 -0.0000
vn 0.0019 1.0000 -0.0000
vn 0.9042 -0.4272 0.0000
vn 0.0147 -0.9999 0.0000
vn -0.0625 0.0674 -0.9958
vn 0.0188 0.1742 -0.9845
vn 0.0113 0.0469 -0.9988
vn -0.0629 0.0468 -0.9969
vn 0.0080 1.0000 -0.0000
vn 0.0236 0.8868 -0.4616
vn -0.4984 0.8669 0.0000
vn -0.4791 0.8334 -0.2755
vn -0.2327 0.9725 -0.0000
vn 0.0033 1.0000 0.0000
vn -0.2331 0.9725 -0.0000
vn 0.3239 0.9461 -0.0000
vn 0.0313 -0.0084 0.9995
vn 0.0502 0.1017 0.9936
vn 0.0526 0.8885 0.4559
vn 0.0076 0.9997 0.0245
vn 0.2609 0.7920 0.5520
vn 0.0072 1.0000 -0.0000
vn 0.0076 0.9997 -0.0236
vn 0.2675 0.7941 -0.5458
vn -0.6509 -0.7591 -0.0000
# 73 vertex normals

vt 1.0000 0.0954 0.0000
vt 0.0000 0.0954 0.0000
vt 0.0000 0.0000 0.0000
vt 1.0000 0.0000 0.0000
vt 1.0000 0.4624 0.0000
vt 0.0000 0.4624 0.0000
vt 0.0954 0.0000 0.0000
vt 0.0954 0.4624 0.0000
vt 0.0940 0.0000 0.0000
vt 0.0940 0.4624 0.0000
vt 0.9060 1.0000 0.0000
vt 1.0000 1.0000 0.0000
vt 0.0000 1.0000 0.0000
vt 0.9060 0.4624 0.0000
vt 0.9046 1.0000 0.0000
vt 0.9046 0.4624 0.0000
vt 0.0000 0.9060 0.0000
vt 1.0000 0.9060 0.0000
vt 0.9060 0.0000 0.0000
vt 0.1878 0.0000 0.0000
vt 0.1878 0.4624 0.0000
vt 0.8122 1.0000 0.0000
vt 0.8122 0.4624 0.0000
vt 0.0940 1.0000 0.0000
vt 1.0000 0.2042 0.0000
vt 0.0000 0.2042 0.0000
vt 0.2042 0.0000 0.0000
vt 0.2042 0.4624 0.0000
vt 0.7958 1.0000 0.0000
vt 0.7958 0.4624 0.0000
vt 0.9046 0.0000 0.0000
vt 0.0954 1.0000 0.0000
vt 0.7958 0.0000 0.0000
vt 0.2042 1.0000 0.0000
vt 1.0000 0.8122 0.0000
vt 0.0000 0.8122 0.0000
vt 0.8122 0.0000 0.0000
vt 0.1878 1.0000 0.0000
# 38 texture coords

g Box001
usemtl wire_148177027
s 1
f 1/1/1 2/2/2 3/3/3 
f 3/3/3 4/4/4 1/1/1 
s 2
f 5/4/5 6/1/5 7/2/5 
f 7/2/5 8/3/5 5/4/5 
s 1
f 3/4/3 9/5/6 10/6/7 
f 10/6/7 4/3/4 3/4/3 
f 11/3/8 12/7/9 13/8/10 
f 13/8/10 14/6/11 11/3/8 
f 15/3/12 16/4/13 17/5/14 
f 17/5/14 18/6/15 15/3/12 
f 16/3/13 19/9/16 20/10/17 
f 20/10/17 17/6/14 16/3/13 
f 2/7/2 21/7/18 22/3/19 
f 22/3/19 3/3/3 2/7/2 
f 18/5/15 23/5/20 24/4/21 
f 24/4/21 15/4/12 18/5/15 
s 2
f 25/11/5 26/11/5 27/12/5 
f 27/12/5 28/12/5 25/11/5 
s 1
f 5/13/22 9/6/6 29/6/23 
f 29/6/23 30/13/24 5/13/22 
f 21/7/18 31/7/25 32/3/26 
f 32/3/26 22/3/19 21/7/18 
f 23/5/20 33/5/27 34/4/28 
f 34/4/28 24/4/21 23/5/20 
s 2
f 26/11/5 35/11/5 36/12/5 
f 36/12/5 27/12/5 26/11/5 
s 1
f 30/13/24 29/6/23 37/6/29 
f 37/6/29 38/13/30 30/13/24 
f 31/7/25 12/7/9 11/3/8 
f 11/3/8 32/3/26 31/7/25 
f 33/5/27 39/5/31 40/4/32 
f 40/4/32 34/4/28 33/5/27 
s 2
f 35/11/5 41/11/5 42/12/5 
f 42/12/5 36/12/5 35/11/5 
s 1
f 38/13/30 37/6/29 14/6/11 
f 14/6/11 43/13/33 38/13/30 
f 9/5/6 5/12/22 8/13/34 
f 8/13/34 10/6/7 9/5/6 
f 39/5/31 42/12/35 41/11/36 
f 41/11/36 44/14/37 39/5/31 
f 45/12/38 28/13/39 18/6/15 
f 18/6/15 17/5/14 45/12/38 
f 10/5/7 8/12/34 7/15/17 
f 7/15/17 46/16/40 10/5/7 
f 28/12/39 27/12/41 23/5/20 
f 23/5/20 18/5/15 28/12/39 
f 9/6/6 3/3/3 22/3/19 
f 22/3/19 29/6/23 9/6/6 
f 27/12/41 36/12/42 33/5/27 
f 33/5/27 23/5/20 27/12/41 
f 29/6/23 22/3/19 32/3/26 
f 32/3/26 37/6/29 29/6/23 
f 36/12/42 42/12/35 39/5/31 
f 39/5/31 33/5/27 36/12/42 
f 37/6/29 32/3/26 11/3/8 
f 11/3/8 14/6/11 37/6/29 
f 16/12/13 15/13/12 47/17/2 
f 47/17/2 19/18/16 16/12/13 
s 2
f 28/12/5 45/13/5 48/17/5 
f 48/17/5 25/18/5 28/12/5 
s 1
f 40/4/32 39/5/31 44/14/37 
f 44/14/37 49/19/43 40/4/32 
f 19/9/16 50/20/16 51/21/44 
f 51/21/44 20/10/17 19/9/16 
f 47/19/2 15/4/12 24/4/21 
f 24/4/21 52/19/18 47/19/2 
s 4
f 53/22/45 54/22/46 26/11/47 
f 26/11/47 25/11/48 53/22/45 
s 1
f 52/19/18 24/4/21 34/4/28 
f 34/4/28 55/19/49 52/19/18 
s 2
f 54/22/5 56/22/50 35/11/5 
f 35/11/5 26/11/5 54/22/5 
s 1
f 55/19/49 34/4/28 40/4/32 
f 40/4/32 49/19/43 55/19/49 
s 2
f 56/22/50 57/22/5 41/11/5 
f 41/11/5 35/11/5 56/22/50 
s 1
f 57/22/51 58/23/37 44/14/37 
f 44/14/37 41/11/36 57/22/51 
f 48/24/17 45/13/38 17/6/14 
f 17/6/14 20/10/17 48/24/17 
f 59/25/16 60/26/52 2/2/2 
f 2/2/2 1/1/1 59/25/16 
s 4
f 61/25/53 62/26/54 7/2/55 
f 7/2/55 6/1/56 61/25/53 
s 1
f 12/7/9 63/27/9 64/28/10 
f 64/28/10 13/8/10 12/7/9 
f 60/27/52 65/27/18 21/7/18 
f 21/7/18 2/7/2 60/27/52 
f 65/27/18 66/27/25 31/7/25 
f 31/7/25 21/7/18 65/27/18 
f 66/27/25 63/27/9 12/7/9 
f 12/7/9 31/7/25 66/27/25 
s 4
f 62/29/54 67/30/57 46/16/58 
f 46/16/58 7/15/55 62/29/54 
s 1
f 4/4/4 10/5/7 46/16/40 
f 46/16/40 1/31/1 4/4/4 
s 2
f 6/32/5 5/13/5 30/13/5 
f 30/13/5 68/32/5 6/32/5 
f 68/32/5 30/13/5 38/13/5 
f 38/13/5 69/32/5 68/32/5 
f 69/32/5 38/13/5 43/13/5 
f 43/13/5 70/32/5 69/32/5 
s 1
f 70/32/36 43/13/33 14/6/11 
f 14/6/11 13/8/10 70/32/36 
f 1/31/1 46/16/40 67/30/59 
f 67/30/59 59/33/16 1/31/1 
s 4
f 61/34/53 6/32/56 68/32/60 
f 68/32/60 71/34/46 61/34/53 
s 2
f 71/34/5 68/32/5 69/32/5 
f 69/32/5 72/34/50 71/34/5 
f 72/34/50 69/32/5 70/32/5 
f 70/32/5 73/34/5 72/34/50 
s 1
f 73/34/36 70/32/36 13/8/10 
f 13/8/10 64/28/10 73/34/36 
f 50/35/16 74/36/52 60/26/52 
f 60/26/52 59/25/16 50/35/16 
f 53/35/61 75/36/62 62/26/62 
f 62/26/62 61/25/63 53/35/61 
f 76/37/43 58/23/37 64/28/10 
f 64/28/10 63/27/9 76/37/43 
f 74/37/52 77/37/18 65/27/18 
f 65/27/18 60/27/52 74/37/52 
f 77/37/18 78/37/49 66/27/25 
f 66/27/25 65/27/18 77/37/18 
f 78/37/49 76/37/43 63/27/9 
f 63/27/9 66/27/25 78/37/49 
f 75/38/62 51/21/44 67/30/59 
f 67/30/59 62/29/62 75/38/62 
f 50/20/16 59/33/16 67/30/59 
f 67/30/59 51/21/44 50/20/16 
f 61/34/63 71/34/46 54/22/46 
f 54/22/46 53/22/61 61/34/63 
s off
f 79/34/64 80/34/64 81/22/64 
f 81/22/64 82/22/64 79/34/64 
s 2
f 72/34/50 73/34/5 57/22/5 
f 57/22/5 56/22/50 72/34/50 
s 1
f 73/34/36 64/28/10 58/23/37 
f 58/23/37 57/22/51 73/34/36 
f 19/18/16 47/17/2 74/36/52 
f 74/36/52 50/35/16 19/18/16 
s 4
f 25/18/48 48/17/65 75/36/66 
f 75/36/66 53/35/45 25/18/48 
s 1
f 49/19/43 44/14/37 58/23/37 
f 58/23/37 76/37/43 49/19/43 
f 74/37/52 47/19/2 52/19/18 
f 52/19/18 77/37/18 74/37/52 
f 77/37/18 52/19/18 55/19/49 
f 55/19/49 78/37/49 77/37/18 
f 78/37/49 55/19/49 49/19/43 
f 49/19/43 76/37/43 78/37/49 
s 4
f 75/38/66 48/24/65 20/10/67 
f 20/10/67 51/21/57 75/38/66 
s off
f 71/34/68 72/34/68 80/34/68 
f 80/34/69 79/34/69 71/34/69 
s 2
f 72/34/50 56/22/50 81/22/70 
f 81/22/70 80/34/70 72/34/50 
s off
f 81/22/71 56/22/71 54/22/71 
f 54/22/72 82/22/72 81/22/72 
f 54/22/73 71/34/73 79/34/73 
f 79/34/73 82/22/73 54/22/73 
# 160 faces

